<?xml version="1.0" encoding="UTF-8" standalone="no"?> <!-- Created with Vectornator for iOS (http://vectornator.io/) --><!DOCTYPE svg PUBLIC "-//W3C//DTD SVG 1.1//EN" "http://www.w3.org/Graphics/SVG/1.1/DTD/svg11.dtd">
<svg xmlns="http://www.w3.org/2000/svg" xmlns:xlink="http://www.w3.org/1999/xlink" width="100%" style="fill-rule:nonzero;clip-rule:evenodd;stroke-linecap:round;stroke-linejoin:round;" height="100%" version="1.1" xmlns:vectornator="http://vectornator.io" viewBox="0 0 130 130" xml:space="preserve">
<metadata>
<vectornator:setting key="WDDynamicGuides" value="false"/>
<vectornator:setting key="WDDisplayWhiteBackground" value="false"/>
<vectornator:setting key="WDIsolateActiveLayer" value="false"/>
<vectornator:setting key="WDCMYKEnabledKey" value="false"/>
<vectornator:setting key="WDSnapToEdges" value="false"/>
<vectornator:setting key="WDSnapToPoints" value="false"/>
<vectornator:setting key="VNPencilOnly" value="false"/>
<vectornator:setting key="VNDimensionsVisible" value="true"/>
<vectornator:setting key="WDUnits" value="Points"/>
<vectornator:setting key="WDRulersVisible" value="true"/>
<vectornator:setting value="true" key="WDGuidesVisible"/>
<vectornator:setting key="VNSnapToGuides" value="true"/>
<vectornator:setting value="false" key="WDOutlineMode"/>
<vectornator:setting key="WDSnapToGrid" value="false"/>
<vectornator:setting key="UndoHistoryDisabled" value="false"/>
<vectornator:setting key="IsTimeLapseWatermarkDisabled" value="false"/>
</metadata>
<defs/>
<g vectornator:layerName="layer1" id="layer1">
<g opacity="1">
<path stroke="#377e7f" fill="none" d="M60.3887+30.3151C60.3887+27.3341+62.8052+24.9176+65.7862+24.9176C68.7672+24.9176+71.1837+27.3341+71.1837+30.3151C71.1837+33.2961+68.7672+35.7126+65.7862+35.7126C62.8052+35.7126+60.3887+33.2961+60.3887+30.3151Z" stroke-linecap="butt" stroke-width="1.60867" stroke-linejoin="miter" opacity="1"/>
<path stroke="#377e7f" stroke-width="1.60867" d="M52.2042+48.2009C52.0914+46.9556+52.3524+42.7117+52.3101+42.3872C52.2677+42.0591+54.8642+39.4168+55.732+38.6336" fill="none" stroke-linejoin="miter" stroke-linecap="butt" opacity="1"/>
<path stroke-width="1.60867" opacity="1" fill="none" d="M80.0878+48.2009C80.2007+46.9556+79.9396+42.7117+79.982+42.3872C80.0243+42.0591+77.4279+39.4168+76.56+38.6336" stroke="#377e7f" stroke-linejoin="miter" stroke-linecap="butt"/>
<path stroke="#808080" stroke-width="1.60867" stroke-linejoin="round" d="M60.3922+56.4559L49.763+74.2888" fill="none" stroke-linecap="round" opacity="1"/>
<path stroke-width="1.60867" stroke="#808080" d="M65.7932+56.4559L65.765+74.6593" opacity="1" stroke-linecap="round" stroke-linejoin="round" fill="none"/>
<path stroke-linecap="round" stroke-width="1.60867" fill="none" stroke="#808080" d="M71.1837+56.4559L82.2433+74.7651" opacity="1" stroke-linejoin="round"/>
<path stroke-width="1.60867" d="M38.1214+20.0493L93.3663+20.0493" opacity="1" stroke="#808080" fill="none" stroke-linejoin="round" stroke-linecap="round"/>
<path stroke-width="1.60867" stroke="#808080" stroke-linejoin="round" d="M41.7534+20.0407L41.7534+55.6626" fill="none" opacity="1" stroke-linecap="round"/>
<path stroke="#808080" fill="none" stroke-linecap="round" stroke-width="1.60867" d="M89.8189+20.1235L89.8189+55.7455" opacity="1" stroke-linejoin="round"/>
<path opacity="1" stroke-linejoin="miter" d="M57.764+40.0271C57.764+37.3848+59.9054+35.2469+62.5477+35.2469C62.9745+35.254+65.3099+42.0238+65.7368+42.0308C67.2714+39.064+66.333+40.9619+69.067+35.2469C71.7093+35.2469+73.8507+37.3848+73.8507+40.0271L73.8507+47.1885C73.8507+49.8308+71.7093+51.9686+69.067+51.9686L62.5477+51.9686C59.9054+51.9686+57.764+49.8308+57.764+47.1885L57.764+40.0271Z" stroke-linecap="butt" stroke-width="1.60867" stroke="#377e7f" fill="none"/>
<path opacity="1" d="M48.239+50.2118C48.239+49.5203+48.7964+48.9629+49.4878+48.9629L82.1692+48.9629C82.8606+48.9629+83.418+49.5203+83.418+50.2118L83.418+55.2071C83.418+55.8985+82.8606+56.4559+82.1692+56.4559L49.4878+56.4559C48.7964+56.4559+48.239+55.8985+48.239+55.2071L48.239+50.2118Z" fill="#ffffff"/>
<path stroke-linejoin="miter" opacity="1" stroke-linecap="butt" fill="none" d="M48.239+49.8324C48.239+49.1248+48.7964+48.5543+49.4878+48.5543L82.1692+48.5543C82.8606+48.5543+83.418+49.1248+83.418+49.8324L83.418+54.9448C83.418+55.6524+82.8606+56.2229+82.1692+56.2229L49.4878+56.2229C48.7964+56.2229+48.239+55.6524+48.239+54.9448L48.239+49.8324Z" stroke-width="1.60867" stroke="#377e7f"/>
<path stroke-linejoin="round" opacity="1" stroke-width="1.60867" fill="none" stroke-linecap="round" d="M38.1214+56.2443L93.3663+56.2443" stroke="#808080"/>
</g>
<g opacity="1">
<path fill="#808080" opacity="1" d="M36.227+95.1029C36.1627+95.1029+36.0915+95.0914+36.0134+95.0684C35.2371+94.8479+34.4884+94.7377+33.7672+94.7377C33.3906+94.7377+32.9794+94.7721+32.5339+94.8411C32.0883+94.91+31.6083+95.0156+31.0938+95.158C31.1352+95.4566+31.1558+95.6954+31.1558+95.8746C31.1558+96.5131+31.1168+97.3904+31.0387+98.5066L34.0566+98.2172C34.9432+98.1254+35.4875+98.0794+35.6896+98.0794C35.8917+98.0794+36.0617+98.1438+36.1995+98.2724C36.3373+98.401+36.4062+98.5732+36.4062+98.7891C36.4062+99.2071+36.1949+99.4414+35.7723+99.4919L34.1324+99.6366L30.9491+99.926C30.9308+100.252+30.9158+100.561+30.9043+100.853C30.8929+101.144+30.8871+101.417+30.8871+101.669C30.8871+102.684+30.9606+103.282+31.1076+103.461C31.2179+103.589+31.5784+103.654+32.1894+103.654C32.4742+103.654+32.9025+103.646+33.4744+103.629C34.0463+103.613+34.4769+103.605+34.7663+103.605C34.8582+103.605+34.9937+103.59+35.1728+103.561C35.352+103.531+35.4852+103.516+35.5725+103.516C36.0594+103.516+36.3028+103.755+36.3028+104.232C36.3028+104.618+36.1076+104.85+35.7172+104.928C35.2854+105.016+34.3506+105.059+32.9128+105.059C31.4889+105.059+30.5748+104.871+30.1705+104.494C29.7296+104.085+29.5091+103.144+29.5091+101.669C29.5091+101.375+29.516+101.054+29.5298+100.705C29.5435+100.356+29.5619+99.9788+29.5849+99.5746C29.5343+99.469+29.5091+99.3564+29.5091+99.237C29.5091+99.0808+29.5527+98.9407+29.64+98.8167C29.7319+97.4892+29.7778+96.5085+29.7778+95.8746C29.7778+95.7046+29.7548+95.4554+29.7089+95.127C29.663+94.7986+29.64+94.5494+29.64+94.3794C29.64+93.8328+29.8697+93.5595+30.329+93.5595C30.5219+93.5595+30.6873+93.6261+30.8251+93.7593C31.3763+93.6123+31.8965+93.5021+32.3857+93.4286C32.8749+93.3551+33.3354+93.3183+33.7672+93.3183C34.8834+93.3183+35.7746+93.4515+36.4406+93.7179C36.7484+93.842+36.9023+94.0625+36.9023+94.3794C36.9023+94.5631+36.8425+94.7262+36.7231+94.8686C36.5899+95.0248+36.4245+95.1029+36.227+95.1029Z"/>
<path opacity="1" d="M44.6606+98.293C44.6055+98.9683+44.5779+99.6435+44.5779+100.319C44.5779+101.848+44.6491+103.004+44.7915+103.785C44.8007+103.849+44.8053+103.902+44.8053+103.943C44.8053+104.127+44.741+104.278+44.6124+104.398C44.4838+104.517+44.3345+104.577+44.1645+104.577C43.8797+104.577+43.6707+104.37+43.5375+103.957C43.2068+104.2+42.8634+104.384+42.5074+104.508C42.1514+104.632+41.7805+104.694+41.3947+104.694C40.4438+104.694+39.656+104.377+39.0313+103.743C38.3882+103.096+38.0667+102.264+38.0667+101.249C38.0667+100.022+38.3917+99.0395+39.0417+98.2999C39.6916+97.5604+40.5357+97.1906+41.5738+97.1906C42.1067+97.1906+42.5178+97.2733+42.8072+97.4387L43.4548+97.9141C43.5191+95.9802+43.5949+94.678+43.6822+94.0073C43.7419+93.5985+43.9509+93.3941+44.3092+93.3941C44.7272+93.3941+44.9362+93.6169+44.9362+94.0625C44.9362+94.701+44.8444+96.1111+44.6606+98.293ZM41.6014+98.4722C40.8297+98.4722+40.2509+98.7007+39.865+99.1578C39.4792+99.6148+39.2863+100.303+39.2863+101.221C39.2863+101.814+39.4964+102.324+39.9167+102.751C40.337+103.178+40.8297+103.392+41.3947+103.392C41.7805+103.392+42.1067+103.321+42.3731+103.178C42.5293+103.096+42.7842+102.905+43.1379+102.606C43.2068+102.547+43.2734+102.475+43.3377+102.393L43.317+101.201L43.3239+100.401L43.3377+99.5884C43.1632+99.2163+42.9312+98.9373+42.6418+98.7512C42.3524+98.5652+42.0056+98.4722+41.6014+98.4722Z" fill="#808080"/>
<path d="M52.2261+100.353C52.2261+100.684+52.2284+101.18+52.2329+101.841C52.2375+102.503+52.2398+102.999+52.2398+103.33C52.2398+103.431+52.2479+103.585+52.264+103.791C52.28+103.998+52.2881+104.152+52.2881+104.253C52.2881+104.451+52.2215+104.612+52.0883+104.739C51.955+104.865+51.792+104.928+51.5991+104.928C51.2454+104.928+51.0203+104.71+50.9238+104.274C50.3496+104.572+49.6882+104.722+48.9394+104.722C48.3377+104.722+47.8393+104.588+47.4443+104.322C47.0079+104.028+46.7484+103.598+46.6657+103.033C46.4865+101.816+46.397+100.732+46.397+99.7813C46.397+99.152+46.4659+98.4354+46.6037+97.6316C46.668+97.2319+46.8862+97.0321+47.2582+97.0321C47.4557+97.0321+47.6211+97.0953+47.7543+97.2216C47.8875+97.3479+47.9541+97.5099+47.9541+97.7074C47.9541+97.9187+47.9208+98.2563+47.8542+98.7202C47.7876+99.1842+47.7543+99.5379+47.7543+99.7813C47.7543+100.548+47.7796+101.205+47.8301+101.752C47.8806+102.299+47.9564+102.737+48.0575+103.068C48.2091+103.151+48.3584+103.214+48.5054+103.257C48.6523+103.301+48.797+103.323+48.9394+103.323C49.555+103.323+50.2049+103.224+50.8894+103.027L50.8825+101.628L50.8687+100.291C50.8687+99.299+50.9123+98.4377+50.9996+97.7074C51.0501+97.2848+51.2729+97.0735+51.668+97.0735C51.8655+97.0735+52.0308+97.1378+52.164+97.2664C52.2973+97.395+52.3593+97.5558+52.3501+97.7487L52.2261+100.353Z" fill="#808080" opacity="1"/>
<path fill="#808080" opacity="1" d="M57.0561+104.811C56.1144+104.811+55.3289+104.526+54.6996+103.957C54.0382+103.36+53.7075+102.572+53.7075+101.593C53.7075+100.661+54.0175+99.6986+54.6376+98.7065C55.3266+97.604+56.1029+97.0528+56.9665+97.0528C57.4167+97.0528+57.9197+97.1585+58.4755+97.3698C59.1783+97.6408+59.5297+97.9715+59.5297+98.3619C59.5297+98.5365+59.4722+98.6915+59.3574+98.827C59.2426+98.9625+59.1002+99.0303+58.9302+99.0303C58.797+99.0303+58.681+98.9901+58.5823+98.9097C58.4835+98.8293+58.3882+98.7501+58.2963+98.672C58.0253+98.4561+57.582+98.3482+56.9665+98.3482C56.498+98.3482+56.034+98.7662+55.5747+99.6022C55.1567+100.369+54.9477+101.033+54.9477+101.593C54.9477+102.2+55.1544+102.678+55.5678+103.027C55.9537+103.353+56.4497+103.516+57.0561+103.516C57.3317+103.516+57.6257+103.442+57.938+103.295L58.7373+102.868C58.8751+102.795+58.9739+102.758+59.0336+102.758C59.2035+102.758+59.3505+102.826+59.4745+102.961C59.5986+103.097+59.6606+103.252+59.6606+103.426C59.6606+103.762+59.3069+104.085+58.5995+104.398C57.9794+104.673+57.4649+104.811+57.0561+104.811Z"/>
<path opacity="1" d="M66.5714+104.832C66.4842+104.832+66.3257+104.731+66.096+104.529C65.8893+104.34+65.7354+104.173+65.6344+104.026C65.1934+104.265+64.8053+104.445+64.4699+104.567C64.1346+104.688+63.8544+104.749+63.6293+104.749C62.5545+104.749+61.7713+104.446+61.2798+103.84C60.8158+103.27+60.5839+102.397+60.5839+101.221C60.5839+100.11+60.9663+99.1589+61.7311+98.3688C62.4959+97.5788+63.4088+97.1837+64.4699+97.1837C64.8696+97.1837+65.3174+97.2871+65.8135+97.4938C66.4382+97.751+66.7506+98.0611+66.7506+98.424C66.7506+98.548+66.7047+98.6582+66.6128+98.7547C66.5669+98.9292+66.5313+99.2163+66.506+99.616C66.4807+100.016+66.4658+100.528+66.4612+101.152C66.4566+101.722+66.4957+102.172+66.5783+102.503C66.6243+102.705+66.769+103.109+67.0124+103.716C67.0446+103.798+67.0974+103.92+67.1709+104.081L67.2122+104.198C67.2122+104.382+67.1479+104.533+67.0193+104.653C66.8907+104.772+66.7414+104.832+66.5714+104.832ZM65.1383+100.043C65.1383+99.8456+65.1509+99.6309+65.1762+99.3989C65.2014+99.1669+65.2393+98.92+65.2899+98.6582C65.1199+98.5709+64.9741+98.5066+64.8523+98.4653C64.7306+98.424+64.633+98.4033+64.5595+98.4033C63.8475+98.4033+63.2331+98.6938+62.7164+99.2749C62.1996+99.856+61.9412+100.525+61.9412+101.283C61.9412+102.037+62.0744+102.602+62.3409+102.978C62.6073+103.355+63.0069+103.543+63.5398+103.543C63.9807+103.543+64.3551+103.463+64.6629+103.302C64.8282+103.215+65.0602+103.04+65.3588+102.779C65.2118+101.561+65.1383+100.649+65.1383+100.043Z" fill="#808080"/>
<path d="M73.0207+98.5066C72.9242+98.5066+72.8105+98.502+72.6796+98.4929C72.5487+98.4837+72.435+98.4791+72.3385+98.4791C72.2329+98.4791+71.9205+98.5135+71.4015+98.5824L71.5324+102.655L71.5393+102.958L71.5462+103.309C71.5645+104.315+71.3234+104.818+70.8227+104.818C70.639+104.818+70.4793+104.758+70.3438+104.639C70.2083+104.519+70.1406+104.37+70.1406+104.191C70.1406+104.016+70.1475+103.755+70.1612+103.406C70.175+103.056+70.1819+102.795+70.1819+102.62L70.0441+98.5962C69.7088+98.5824+69.1989+98.5434+68.5145+98.4791C68.1057+98.424+67.9013+98.1966+67.9013+97.7969C67.9013+97.5948+67.9633+97.4272+68.0873+97.294C68.2113+97.1608+68.3698+97.0941+68.5627+97.0941L70.0097+97.2113C70.0097+96.977+69.9993+96.6635+69.9786+96.2708C69.958+95.878+69.9476+95.5944+69.9476+95.4198C69.9476+95.2269+70.0142+95.0673+70.1475+94.941C70.2807+94.8146+70.4437+94.7515+70.6367+94.7515C71.0501+94.7515+71.2912+95.0891+71.3601+95.7643C71.3739+95.9343+71.3808+96.1387+71.3808+96.3776L71.367+96.7772L71.3601+97.2044C71.9297+97.1309+72.2559+97.0941+72.3385+97.0941C72.8163+97.0941+73.1286+97.1171+73.2756+97.163C73.5558+97.2549+73.6959+97.4708+73.6959+97.8107C73.6959+98.0128+73.6327+98.1794+73.5064+98.3103C73.3801+98.4412+73.2182+98.5066+73.0207+98.5066Z" fill="#808080" opacity="1"/>
<path opacity="1" fill="#808080" d="M76.3762+95.6541C76.1557+95.6541+75.9651+95.576+75.8043+95.4198C75.6435+95.2637+75.5632+95.0753+75.5632+94.8548C75.5632+94.6343+75.6435+94.446+75.8043+94.2898C75.9651+94.1337+76.1557+94.0556+76.3762+94.0556C76.5967+94.0556+76.7862+94.1337+76.9446+94.2898C77.1031+94.446+77.1823+94.6343+77.1823+94.8548C77.1823+95.0753+77.1031+95.2637+76.9446+95.4198C76.7862+95.576+76.5967+95.6541+76.3762+95.6541ZM76.6863+101.249C76.6863+101.525+76.6943+101.937+76.7104+102.486C76.7264+103.035+76.7345+103.447+76.7345+103.723C76.7345+103.925+76.6725+104.09+76.5485+104.219C76.4244+104.347+76.2614+104.412+76.0592+104.412C75.8617+104.412+75.6998+104.347+75.5735+104.219C75.4472+104.09+75.384+103.925+75.384+103.723C75.384+103.447+75.376+103.035+75.3599+102.486C75.3438+101.937+75.3358+101.525+75.3358+101.249C75.3358+100.817+75.3587+100.279+75.4047+99.6332C75.4506+98.9878+75.4736+98.4492+75.4736+98.0174C75.4736+97.8107+75.5367+97.6431+75.6631+97.5144C75.7894+97.3858+75.9513+97.3215+76.1488+97.3215C76.3463+97.3215+76.5083+97.3858+76.6346+97.5144C76.7609+97.6431+76.8241+97.8107+76.8241+98.0174C76.8241+98.4492+76.8011+98.9878+76.7552+99.6332C76.7092+100.279+76.6863+100.817+76.6863+101.249Z"/>
<path d="M81.599+104.784C80.8273+104.784+80.1635+104.499+79.6077+103.929C78.9876+103.295+78.6614+102.443+78.6293+101.373C78.6017+100.335+78.8636+99.4207+79.4148+98.6307C80.0579+97.6982+80.9536+97.2319+82.1019+97.2319C83.0206+97.2319+83.7166+97.6523+84.1897+98.4929C84.5663+99.1727+84.7478+99.9903+84.734+100.946C84.7202+101.966+84.4538+102.836+83.9347+103.557C83.3468+104.375+82.5682+104.784+81.599+104.784ZM82.0124+98.6307C81.3371+98.6261+80.8112+98.9476+80.4345+99.5953C80.1359+100.114+79.9867+100.707+79.9867+101.373C79.9867+102.039+80.1681+102.558+80.531+102.93C80.8342+103.238+81.1901+103.392+81.599+103.392C82.0767+103.392+82.4878+103.217+82.8323+102.868C83.2228+102.482+83.4295+101.961+83.4524+101.304C83.5167+99.5264+83.0367+98.6353+82.0124+98.6307Z" opacity="1" fill="#808080"/>
<path d="M91.7207+104.866C91.3256+104.866+91.1028+104.65+91.0523+104.219L90.8594+102.71C90.7951+102.172+90.7629+101.669+90.7629+101.201C90.7629+101.072+90.771+100.854+90.787+100.546C90.8031+100.238+90.8112+100.02+90.8112+99.8916C90.8112+98.8994+90.6274+98.4033+90.2599+98.4033C89.7455+98.4033+89.254+98.7087+88.7854+99.3197C88.3628+99.8755+88.0321+100.578+87.7933+101.428C87.7841+101.607+87.7634+101.832+87.7312+102.103C87.7037+102.333+87.6899+102.556+87.6899+102.772C87.6899+102.909+87.7037+103.116+87.7312+103.392C87.7588+103.667+87.7726+103.874+87.7726+104.012C87.7726+104.219+87.7094+104.386+87.5831+104.515C87.4568+104.644+87.2949+104.708+87.0973+104.708C86.8952+104.708+86.7322+104.644+86.6081+104.515C86.4841+104.386+86.4221+104.219+86.4221+104.012C86.4221+103.874+86.4072+103.667+86.3773+103.392C86.3475+103.116+86.3325+102.909+86.3325+102.772C86.3325+102.299+86.3658+101.643+86.4324+100.805C86.499+99.9662+86.5323+99.3105+86.5323+98.8374C86.5323+98.6904+86.5243+98.4722+86.5082+98.1828C86.4922+97.8934+86.4841+97.6752+86.4841+97.5282C86.4841+97.3307+86.5496+97.1688+86.6805+97.0425C86.8114+96.9161+86.9733+96.853+87.1662+96.853C87.5888+96.853+87.8208+97.1516+87.8622+97.7487L87.8828+98.5549C88.6545+97.5259+89.4469+97.0115+90.2599+97.0115C90.9949+97.0115+91.5071+97.3353+91.7965+97.983C91.994+98.4148+92.1019+99.0533+92.1203+99.8985L92.1203+100.594L92.1134+101.235C92.1134+101.616+92.1628+102.109+92.2615+102.713C92.3603+103.317+92.4097+103.807+92.4097+104.184C92.4097+104.386+92.3442+104.55+92.2133+104.677C92.0824+104.803+91.9182+104.866+91.7207+104.866Z" fill="#808080" opacity="1"/>
<path d="M99.2034+104.832C99.1161+104.832+98.9577+104.731+98.728+104.529C98.5213+104.34+98.3674+104.173+98.2663+104.026C97.8254+104.265+97.4372+104.445+97.1019+104.567C96.7666+104.688+96.4864+104.749+96.2613+104.749C95.1864+104.749+94.4032+104.446+93.9117+103.84C93.4478+103.27+93.2158+102.397+93.2158+101.221C93.2158+100.11+93.5982+99.1589+94.3631+98.3688C95.1279+97.5788+96.0408+97.1837+97.1019+97.1837C97.5015+97.1837+97.9494+97.2871+98.4455+97.4938C99.0702+97.751+99.3826+98.0611+99.3826+98.424C99.3826+98.548+99.3366+98.6582+99.2448+98.7547C99.1988+98.9292+99.1632+99.2163+99.138+99.616C99.1127+100.016+99.0978+100.528+99.0932+101.152C99.0886+101.722+99.1276+102.172+99.2103+102.503C99.2562+102.705+99.4009+103.109+99.6444+103.716C99.6765+103.798+99.7294+103.92+99.8029+104.081L99.8442+104.198C99.8442+104.382+99.7799+104.533+99.6513+104.653C99.5227+104.772+99.3734+104.832+99.2034+104.832ZM97.7703+100.043C97.7703+99.8456+97.7829+99.6309+97.8082+99.3989C97.8334+99.1669+97.8713+98.92+97.9218+98.6582C97.7519+98.5709+97.606+98.5066+97.4843+98.4653C97.3626+98.424+97.265+98.4033+97.1915+98.4033C96.4795+98.4033+95.8651+98.6938+95.3484+99.2749C94.8316+99.856+94.5732+100.525+94.5732+101.283C94.5732+102.037+94.7064+102.602+94.9728+102.978C95.2393+103.355+95.6389+103.543+96.1717+103.543C96.6127+103.543+96.9871+103.463+97.2948+103.302C97.4602+103.215+97.6922+103.04+97.9907+102.779C97.8437+101.561+97.7703+100.649+97.7703+100.043Z" opacity="1" fill="#808080"/>
<path d="M102.793+98.9614L102.69+102.386C102.69+102.749+102.671+103.282+102.635+103.984C102.589+104.444+102.364+104.673+101.959+104.673C101.509+104.673+101.284+104.439+101.284+103.971C101.284+103.415+101.31+102.58+101.36+101.466C101.411+100.352+101.436+99.5172+101.436+98.9614C101.436+98.2356+101.447+97.4054+101.47+96.4706C101.493+95.5358+101.505+94.7055+101.505+93.9798C101.505+93.5204+101.73+93.2908+102.18+93.2908C102.635+93.2908+102.862+93.5204+102.862+93.9798C102.862+94.7055+102.851+95.5358+102.828+96.4706C102.805+97.4054+102.793+98.2356+102.793+98.9614Z" opacity="1" fill="#808080"/>
</g>
</g>
</svg>
