<?xml version="1.0" encoding="UTF-8" standalone="no"?>
<!-- Created with Inkscape (http://www.inkscape.org/) -->

<svg
   width="130mm"
   height="130mm"
   viewBox="0 0 130 130"
   version="1.1"
   id="svg161"
   inkscape:version="1.1.1 (c3084ef, 2021-09-22)"
   sodipodi:docname="educational_geg.svg"
   xmlns:inkscape="http://www.inkscape.org/namespaces/inkscape"
   xmlns:sodipodi="http://sodipodi.sourceforge.net/DTD/sodipodi-0.dtd"
   xmlns="http://www.w3.org/2000/svg"
   xmlns:svg="http://www.w3.org/2000/svg">
  <sodipodi:namedview
     id="namedview163"
     pagecolor="#ffffff"
     bordercolor="#666666"
     borderopacity="1.0"
     inkscape:pageshadow="2"
     inkscape:pageopacity="0.0"
     inkscape:pagecheckerboard="0"
     inkscape:document-units="mm"
     showgrid="false"
     inkscape:snap-grids="true"
     width="110mm"
     inkscape:zoom="0.80638102"
     inkscape:cx="179.19569"
     inkscape:cy="304.44665"
     inkscape:window-width="1312"
     inkscape:window-height="949"
     inkscape:window-x="0"
     inkscape:window-y="25"
     inkscape:window-maximized="0"
     inkscape:current-layer="layer1" />
  <defs
     id="defs158" />
  <g
     inkscape:label="Layer 1"
     inkscape:groupmode="layer"
     id="layer1">
    <g
       id="g2382"
       transform="matrix(0.26458333,0,0,0.26458333,9.6901498,11.228383)">
      <path
         d="m 191.61651,72.13877 c 0,-11.26667 9.13334,-20.4 20.4,-20.4 11.26666,0 20.4,9.13333 20.4,20.4 0,11.26667 -9.13334,20.4 -20.4,20.4 -11.26666,0 -20.4,-9.13333 -20.4,-20.4 z"
         style="fill:none;stroke:#377e7f;stroke-width:6.08;stroke-linecap:butt;stroke-linejoin:miter;stroke-miterlimit:10;stroke-dasharray:none;stroke-opacity:1"
         id="path974" />
      <path
         d="m 160.68318,139.73877 c -0.42667,-4.70667 0.56,-20.74667 0.4,-21.97334 -0.16,-1.24 9.65333,-11.22666 12.93333,-14.18666"
         style="fill:none;stroke:#377e7f;stroke-width:6.08;stroke-linecap:butt;stroke-linejoin:miter;stroke-miterlimit:10;stroke-dasharray:none;stroke-opacity:1"
         id="path976" />
      <path
         d="m 266.06984,139.73877 c 0.42667,-4.70667 -0.56,-20.74667 -0.4,-21.97334 0.16,-1.24 -9.65333,-11.22666 -12.93333,-14.18666"
         style="fill:none;stroke:#377e7f;stroke-width:6.08;stroke-linecap:butt;stroke-linejoin:miter;stroke-miterlimit:10;stroke-dasharray:none;stroke-opacity:1"
         id="path978" />
      <path
         d="m 191.62985,170.93877 -40.17334,67.39999"
         style="fill:none;stroke:#808080;stroke-width:6.08;stroke-linecap:round;stroke-linejoin:miter;stroke-miterlimit:10;stroke-dasharray:none;stroke-opacity:1"
         id="path980" />
      <path
         d="m 212.04317,170.93877 -0.10666,68.79999"
         style="fill:none;stroke:#808080;stroke-width:6.08;stroke-linecap:round;stroke-linejoin:miter;stroke-miterlimit:10;stroke-dasharray:none;stroke-opacity:1"
         id="path982" />
      <path
         d="m 232.41651,170.93877 41.8,69.19999"
         style="fill:none;stroke:#808080;stroke-width:6.08;stroke-linecap:round;stroke-linejoin:miter;stroke-miterlimit:10;stroke-dasharray:none;stroke-opacity:1"
         id="path984" />
      <path
         d="M 107.45651,33.33877 H 316.2565"
         style="fill:none;stroke:#808080;stroke-width:6.08;stroke-linecap:round;stroke-linejoin:miter;stroke-miterlimit:10;stroke-dasharray:none;stroke-opacity:1"
         id="path986" />
      <path
         d="M 121.18411,33.306365 V 167.94047"
         style="fill:none;stroke:#808080;stroke-width:6.08;stroke-linecap:round;stroke-linejoin:miter;stroke-miterlimit:10;stroke-dasharray:none;stroke-opacity:1"
         id="path988" />
      <path
         d="M 302.84891,33.619468 V 168.25357"
         style="fill:none;stroke:#808080;stroke-width:6.08;stroke-linecap:round;stroke-linejoin:miter;stroke-miterlimit:10;stroke-dasharray:none;stroke-opacity:1"
         id="path990" />
      <path
         d="m 181.69651,108.84543 c 0,-9.98666 8.09334,-18.06666 18.08,-18.06666 1.61334,0.0267 10.44,25.61333 12.05333,25.64 5.8,-11.21334 2.25333,-4.04 12.58667,-25.64 9.98666,0 18.08,8.08 18.08,18.06666 v 27.06667 c 0,9.98667 -8.09334,18.06667 -18.08,18.06667 h -24.64 c -9.98666,0 -18.08,-8.08 -18.08,-18.06667 z"
         style="fill:none;stroke:#377e7f;stroke-width:6.08;stroke-linecap:butt;stroke-linejoin:miter;stroke-miterlimit:10;stroke-dasharray:none;stroke-opacity:1"
         id="path992" />
      <path
         d="m 145.69651,147.33877 c 0,-2.61334 2.10667,-4.72 4.72,-4.72 h 123.52 c 2.61333,0 4.72,2.10666 4.72,4.72 v 18.88 c 0,2.61333 -2.10667,4.72 -4.72,4.72 h -123.52 c -2.61333,0 -4.72,-2.10667 -4.72,-4.72 z"
         style="fill:#ffffff;fill-opacity:1;fill-rule:evenodd;stroke:none;stroke-width:1.33333"
         id="path994" />
      <path
         d="m 145.69651,145.90501 c 0,-2.67458 2.10667,-4.8306 4.72,-4.8306 h 123.52 c 2.61333,0 4.72,2.15602 4.72,4.8306 v 19.32238 c 0,2.67457 -2.10667,4.8306 -4.72,4.8306 h -123.52 c -2.61333,0 -4.72,-2.15603 -4.72,-4.8306 z"
         style="fill:none;stroke:#377e7f;stroke-width:6.08;stroke-linecap:butt;stroke-linejoin:miter;stroke-miterlimit:10;stroke-dasharray:none;stroke-opacity:1"
         id="path996" />
      <path
         d="M 107.45651,170.13877 H 316.2565"
         style="fill:none;stroke:#808080;stroke-width:6.08;stroke-linecap:round;stroke-linejoin:miter;stroke-miterlimit:10;stroke-dasharray:none;stroke-opacity:1"
         id="path998" />
    </g>
    <text
       xml:space="preserve"
       style="font-style:normal;font-weight:normal;font-size:17.6389px;line-height:1;font-family:sans-serif;fill:#808080;fill-opacity:1;stroke:none;stroke-width:0.264583"
       x="65.695625"
       y="108.37708"
       id="text896-8"><tspan
         sodipodi:role="line"
         x="65.695625"
         y="108.37708"
         style="font-style:normal;font-variant:normal;font-weight:normal;font-stretch:normal;font-size:17.6389px;font-family:'Comic Sans MS';-inkscape-font-specification:'Comic Sans MS';text-align:center;text-anchor:middle;fill:#808080;fill-opacity:1;stroke-width:0.264583"
         id="tspan2365">OSR-Ed</tspan></text>
  </g>
</svg>
