<?xml version="1.0" encoding="UTF-8" standalone="no"?> <!-- Created with Vectornator for iOS (http://vectornator.io/) --><!DOCTYPE svg PUBLIC "-//W3C//DTD SVG 1.1//EN" "http://www.w3.org/Graphics/SVG/1.1/DTD/svg11.dtd">
<svg xml:space="preserve" style="fill-rule:nonzero;clip-rule:evenodd;stroke-linecap:round;stroke-linejoin:round;" width="100%" xmlns:xlink="http://www.w3.org/1999/xlink" version="1.1" viewBox="0 0 1350 520" xmlns:vectornator="http://vectornator.io" height="100%" xmlns="http://www.w3.org/2000/svg">
<metadata>
<vectornator:setting key="UndoHistoryDisabled" value="false"/>
<vectornator:setting key="WDDynamicGuides" value="false"/>
<vectornator:setting key="WDIsolateActiveLayer" value="false"/>
<vectornator:setting key="VNDimensionsVisible" value="true"/>
<vectornator:setting key="WDSnapToPoints" value="false"/>
<vectornator:setting value="false" key="WDSnapToEdges"/>
<vectornator:setting value="false" key="WDDisplayWhiteBackground"/>
<vectornator:setting value="false" key="WDOutlineMode"/>
<vectornator:setting value="Points" key="WDUnits"/>
<vectornator:setting key="VNPencilOnly" value="false"/>
<vectornator:setting key="VNSnapToGuides" value="true"/>
<vectornator:setting key="IsTimeLapseWatermarkDisabled" value="false"/>
<vectornator:setting value="false" key="WDSnapToGrid"/>
<vectornator:setting key="WDRulersVisible" value="true"/>
<vectornator:setting key="WDGuidesVisible" value="true"/>
<vectornator:setting value="false" key="WDCMYKEnabledKey"/>
</metadata>
<defs/>
<g vectornator:layerName="g2382" id="g2382">
<path stroke-width="6.08" d="M203.617+92.1388C203.617+80.8721+212.75+71.7388+224.017+71.7388C235.283+71.7388+244.417+80.8721+244.417+92.1388C244.417+103.405+235.283+112.539+224.017+112.539C212.75+112.539+203.617+103.405+203.617+92.1388Z" stroke-linejoin="miter" stroke="#377e7f" fill="none" opacity="1" stroke-linecap="butt"/>
<path d="M172.683+159.739C172.257+155.032+173.243+138.992+173.083+137.765C172.923+136.525+182.737+126.539+186.017+123.579" stroke-linecap="butt" opacity="1" stroke-linejoin="miter" stroke-width="6.08" stroke="#377e7f" fill="none"/>
<path stroke-linecap="butt" d="M278.07+159.739C278.497+155.032+277.51+138.992+277.67+137.765C277.83+136.525+268.017+126.539+264.737+123.579" fill="none" opacity="1" stroke-width="6.08" stroke-linejoin="miter" stroke="#377e7f"/>
<path opacity="1" d="M203.63+190.939L163.457+258.339" fill="none" stroke="#808080" stroke-linecap="round" stroke-width="6.08" stroke-linejoin="round"/>
<path stroke="#808080" stroke-linejoin="round" stroke-linecap="round" opacity="1" stroke-width="6.08" fill="none" d="M224.043+190.939L223.937+259.739"/>
<path stroke="#808080" d="M244.417+190.939L286.217+260.139" stroke-width="6.08" stroke-linecap="round" fill="none" stroke-linejoin="round" opacity="1"/>
<path d="M119.457+53.3388L328.257+53.3388" stroke-width="6.08" stroke-linecap="round" fill="none" stroke-linejoin="round" opacity="1" stroke="#808080"/>
<path opacity="1" fill="none" stroke-linejoin="round" stroke-linecap="round" d="M133.184+53.3064L133.184+187.94" stroke="#808080" stroke-width="6.08"/>
<path stroke="#808080" stroke-width="6.08" stroke-linecap="round" opacity="1" stroke-linejoin="round" fill="none" d="M314.849+53.6195L314.849+188.254"/>
<path d="M193.697+128.845C193.697+118.859+201.79+110.779+211.777+110.779C213.39+110.805+222.217+136.392+223.83+136.419C229.63+125.205+226.083+132.379+236.417+110.779C246.403+110.779+254.497+118.859+254.497+128.845L254.497+155.912C254.497+165.899+246.403+173.979+236.417+173.979L211.777+173.979C201.79+173.979+193.697+165.899+193.697+155.912L193.697+128.845Z" stroke-width="6.08" stroke-linejoin="miter" fill="none" stroke="#377e7f" opacity="1" stroke-linecap="butt"/>
<path d="M157.697+167.339C157.697+164.725+159.803+162.619+162.417+162.619L285.936+162.619C288.55+162.619+290.656+164.725+290.656+167.339L290.656+186.219C290.656+188.832+288.55+190.939+285.936+190.939L162.417+190.939C159.803+190.939+157.697+188.832+157.697+186.219L157.697+167.339Z" opacity="1" fill="#ffffff"/>
<path stroke-linecap="butt" fill="none" d="M157.697+165.905C157.697+163.23+159.803+161.074+162.417+161.074L285.936+161.074C288.55+161.074+290.656+163.23+290.656+165.905L290.656+185.227C290.656+187.902+288.55+190.058+285.936+190.058L162.417+190.058C159.803+190.058+157.697+187.902+157.697+185.227L157.697+165.905Z" stroke-linejoin="miter" stroke-width="6.08" stroke="#377e7f" opacity="1"/>
<path stroke="#808080" opacity="1" stroke-width="6.08" stroke-linecap="round" fill="none" d="M119.457+190.139L328.257+190.139" stroke-linejoin="round"/>
</g>
<g id="g2430" vectornator:layerName="g2430">
<path stroke-linecap="butt" stroke-width="6.08" stroke-dasharray="6.079999923706055,6.079999923706055" d="M592.023+177.179C592.023+126.672+632.957+85.7388+683.463+85.7388C733.97+85.7388+774.903+126.672+774.903+177.179C774.903+227.685+733.97+268.619+683.463+268.619C632.957+268.619+592.023+227.685+592.023+177.179Z" opacity="1" stroke-linejoin="miter" fill="none" stroke="#808080"/>
<path d="M641.623+57.2988C641.623+53.2188+644.943+49.8988+649.023+49.8988L717.743+49.8988C721.823+49.8988+725.143+53.2188+725.143+57.2988L725.143+111.779C725.143+115.859+721.823+119.179+717.743+119.179L649.023+119.179C644.943+119.179+641.623+115.859+641.623+111.779L641.623+57.2988Z" opacity="1" fill="#ffffff"/>
<path stroke-linecap="butt" d="M641.623+57.2988C641.623+53.2188+644.943+49.8988+649.023+49.8988L717.743+49.8988C721.823+49.8988+725.143+53.2188+725.143+57.2988L725.143+111.779C725.143+115.859+721.823+119.179+717.743+119.179L649.023+119.179C644.943+119.179+641.623+115.859+641.623+111.779L641.623+57.2988Z" stroke="#808080" stroke-linejoin="miter" fill="none" opacity="1" stroke-width="6.08"/>
<path opacity="1" stroke-width="6.08" stroke="#ed722e" d="M671.063+72.0588C671.063+65.6588+676.29+60.4588+682.743+60.4588C689.197+60.4588+694.423+65.6588+694.423+72.0588C694.423+78.4588+689.197+83.6588+682.743+83.6588C676.29+83.6588+671.063+78.4588+671.063+72.0588Z" fill="none" stroke-linecap="butt" stroke-linejoin="miter"/>
<path opacity="1" fill="#ffffff" d="M655.543+102.312C655.543+96.6054+660.17+91.9788+665.877+91.9788L698.49+91.9788C704.197+91.9788+708.823+96.6054+708.823+102.312L708.823+108.365C708.823+114.072+704.197+118.699+698.49+118.699L665.877+118.699C660.17+118.699+655.543+114.072+655.543+108.365L655.543+102.312Z"/>
<path opacity="1" stroke="#ed722e" stroke-linecap="butt" stroke-width="6.08" d="M655.543+102.312C655.543+96.6054+660.17+91.9788+665.877+91.9788L698.49+91.9788C704.197+91.9788+708.823+96.6054+708.823+102.312L708.823+108.365C708.823+114.072+704.197+118.699+698.49+118.699L665.877+118.699C660.17+118.699+655.543+114.072+655.543+108.365L655.543+102.312Z" fill="none" stroke-linejoin="miter"/>
<path stroke-width="4" opacity="1" stroke-linecap="butt" stroke="#ed722e" d="M667.463+102.459L667.463+114.725" stroke-linejoin="miter" fill="none"/>
<path opacity="1" d="M698.343+102.459L698.343+114.725" stroke-width="4" stroke-linecap="butt" fill="none" stroke-linejoin="miter" stroke="#ed722e"/>
<path fill="#ffffff" d="M638.583+120.299C638.583+116.325+633.783+111.499+637.757+111.499L728.663+111.899C732.237+113.699+728.037+116.325+728.037+120.299L728.037+120.299C726.637+124.672+724.823+127.499+720.863+127.499L645.757+127.499C641.797+127.499+638.583+124.272+638.583+120.299Z" opacity="1"/>
<path d="M638.583+120.299C638.583+116.325+633.783+111.499+637.757+111.499L728.663+111.899C732.237+113.699+728.037+116.325+728.037+120.299L728.037+120.299C726.637+124.672+724.823+127.499+720.863+127.499L645.757+127.499C641.797+127.499+638.583+124.272+638.583+120.299Z" fill="none" stroke-width="6.08" stroke-linejoin="miter" stroke-linecap="butt" opacity="1" stroke="#808080"/>
<g opacity="1">
<path opacity="1" d="M728.343+179.712C728.343+175.619+731.663+172.299+735.757+172.299L804.45+172.299C808.543+172.299+811.863+175.619+811.863+179.712L811.863+234.325C811.863+238.419+808.543+241.739+804.45+241.739L735.757+241.739C731.663+241.739+728.343+238.419+728.343+234.325L728.343+179.712Z" fill="#ffffff"/>
<path stroke-linecap="butt" stroke="#808080" stroke-width="6.08" fill="none" d="M728.343+179.712C728.343+175.619+731.663+172.299+735.757+172.299L804.45+172.299C808.543+172.299+811.863+175.619+811.863+179.712L811.863+234.325C811.863+238.419+808.543+241.739+804.45+241.739L735.757+241.739C731.663+241.739+728.343+238.419+728.343+234.325L728.343+179.712Z" opacity="1" stroke-linejoin="miter"/>
<path fill="none" stroke-linejoin="miter" opacity="1" stroke-width="6.08" stroke-linecap="butt" d="M757.943+194.539C757.943+188.085+763.143+182.859+769.543+182.859C775.943+182.859+781.143+188.085+781.143+194.539C781.143+200.992+775.943+206.219+769.543+206.219C763.143+206.219+757.943+200.992+757.943+194.539Z" stroke="#ed722e"/>
<path opacity="1" fill="#ffffff" d="M742.263+224.805C742.263+219.139+746.863+214.539+752.53+214.539L785.437+214.539C791.103+214.539+795.703+219.139+795.703+224.805L795.703+230.832C795.703+236.499+791.103+241.099+785.437+241.099L752.53+241.099C746.863+241.099+742.263+236.499+742.263+230.832L742.263+224.805Z"/>
<path stroke-linejoin="miter" fill="none" stroke="#ed722e" d="M742.263+224.805C742.263+219.139+746.863+214.539+752.53+214.539L785.437+214.539C791.103+214.539+795.703+219.139+795.703+224.805L795.703+230.832C795.703+236.499+791.103+241.099+785.437+241.099L752.53+241.099C746.863+241.099+742.263+236.499+742.263+230.832L742.263+224.805Z" opacity="1" stroke-linecap="butt" stroke-width="6.08"/>
<path fill="none" d="M754.183+225.019L754.183+237.285" stroke-linejoin="miter" opacity="1" stroke-linecap="butt" stroke="#ed722e" stroke-width="4"/>
<path d="M785.063+225.019L785.063+237.285" fill="none" opacity="1" stroke-linejoin="miter" stroke="#ed722e" stroke-width="4" stroke-linecap="butt"/>
<path opacity="1" d="M725.45+242.779C725.45+238.832+720.677+234.059+724.637+234.059L815.383+234.459C818.943+236.245+814.77+238.832+814.77+242.779L814.77+242.779C813.37+247.112+811.557+249.899+807.597+249.899L732.623+249.899C728.663+249.899+725.45+246.712+725.45+242.779Z" fill="#ffffff"/>
<path opacity="1" stroke="#808080" stroke-width="6.08" stroke-linecap="butt" stroke-linejoin="miter" d="M725.45+242.779C725.45+238.832+720.677+234.059+724.637+234.059L815.383+234.459C818.943+236.245+814.77+238.832+814.77+242.779L814.77+242.779C813.37+247.112+811.557+249.899+807.597+249.899L732.623+249.899C728.663+249.899+725.45+246.712+725.45+242.779Z" fill="none"/>
</g>
<g opacity="1">
<path fill="#ffffff" opacity="1" d="M555.383+180.659C555.383+176.579+558.703+173.259+562.783+173.259L631.503+173.259C635.583+173.259+638.903+176.579+638.903+180.659L638.903+235.139C638.903+239.219+635.583+242.539+631.503+242.539L562.783+242.539C558.703+242.539+555.383+239.219+555.383+235.139L555.383+180.659Z"/>
<path fill="none" opacity="1" d="M555.383+180.659C555.383+176.579+558.703+173.259+562.783+173.259L631.503+173.259C635.583+173.259+638.903+176.579+638.903+180.659L638.903+235.139C638.903+239.219+635.583+242.539+631.503+242.539L562.783+242.539C558.703+242.539+555.383+239.219+555.383+235.139L555.383+180.659Z" stroke-width="6.08" stroke="#808080" stroke-linejoin="miter" stroke-linecap="butt"/>
<path stroke-width="6.08" stroke="#ed722e" d="M584.983+195.419C584.983+189.019+590.183+183.819+596.583+183.819C602.983+183.819+608.183+189.019+608.183+195.419C608.183+201.819+602.983+207.019+596.583+207.019C590.183+207.019+584.983+201.819+584.983+195.419Z" stroke-linejoin="miter" opacity="1" stroke-linecap="butt" fill="none"/>
<path d="M569.303+225.672C569.303+219.965+573.93+215.339+579.637+215.339L612.41+215.339C618.117+215.339+622.743+219.965+622.743+225.672L622.743+231.725C622.743+237.432+618.117+242.059+612.41+242.059L579.637+242.059C573.93+242.059+569.303+237.432+569.303+231.725L569.303+225.672Z" fill="#ffffff" opacity="1"/>
<path opacity="1" stroke-linejoin="miter" d="M569.303+225.672C569.303+219.965+573.93+215.339+579.637+215.339L612.41+215.339C618.117+215.339+622.743+219.965+622.743+225.672L622.743+231.725C622.743+237.432+618.117+242.059+612.41+242.059L579.637+242.059C573.93+242.059+569.303+237.432+569.303+231.725L569.303+225.672Z" fill="none" stroke="#ed722e" stroke-width="6.08" stroke-linecap="butt"/>
<path stroke="#ed722e" fill="none" d="M581.223+225.819L581.223+238.085" opacity="1" stroke-linecap="butt" stroke-linejoin="miter" stroke-width="4"/>
<path stroke-linejoin="miter" d="M612.103+225.819L612.103+238.085" stroke-width="4" fill="none" stroke-linecap="butt" opacity="1" stroke="#ed722e"/>
<path d="M552.49+243.659C552.49+239.685+547.717+234.859+551.677+234.859L642.423+235.259C645.983+237.059+641.81+239.685+641.81+243.659L641.81+243.659C640.41+248.032+638.597+250.859+634.637+250.859L559.663+250.859C555.703+250.859+552.49+247.632+552.49+243.659Z" opacity="1" fill="#ffffff"/>
<path stroke-width="6.08" stroke="#808080" stroke-linejoin="miter" stroke-linecap="butt" opacity="1" d="M552.49+243.659C552.49+239.685+547.717+234.859+551.677+234.859L642.423+235.259C645.983+237.059+641.81+239.685+641.81+243.659L641.81+243.659C640.41+248.032+638.597+250.859+634.637+250.859L559.663+250.859C555.703+250.859+552.49+247.632+552.49+243.659Z" fill="none"/>
</g>
<g opacity="1">
<path fill="#ed722e" d="M712.505+178.429C712.505+174.662+710.099+171.75+707.091+171.408C709.046+170.209+710.249+167.811+710.249+165.071C710.249+161.132+707.542+157.878+704.234+157.878C704.084+157.878+704.084+157.878+703.933+157.878C704.084+157.364+704.234+156.85+704.234+156.165C704.234+152.227+701.527+148.972+698.219+148.972C697.167+148.972+696.264+149.315+695.362+150C695.061+146.232+692.505+143.321+689.347+143.321C686.039+143.321+683.332+146.575+683.332+150.514C683.332+154.453+683.332+205.488+683.332+205.488C683.332+209.427+686.039+212.681+689.347+212.681C692.505+212.681+695.212+209.599+695.362+205.831C696.415+206.859+697.618+207.544+698.971+207.544C702.279+207.544+704.986+204.29+704.986+200.351C704.986+199.152+704.685+198.124+704.234+197.097C704.535+197.097+704.685+197.268+704.986+197.268C708.294+197.268+711.001+194.014+711.001+190.075C711.001+188.02+710.249+186.136+709.046+184.766C711.151+183.567+712.505+181.341+712.505+178.429Z" opacity="1"/>
<path d="M690.7+215.536C686.49+215.536+683.181+211.548+683.181+206.52L683.181+150.867C683.181+145.839+686.64+141.851+690.7+141.851C693.858+141.851+696.715+144.279+697.768+147.919C698.37+147.746+698.971+147.573+699.573+147.573C703.783+147.573+707.091+151.56+707.091+156.588C707.091+156.588+707.091+156.588+707.091+156.761C710.55+157.628+713.106+161.269+713.106+165.604C713.106+167.684+712.505+169.765+711.302+171.325C713.708+172.885+715.212+175.833+715.212+179.127C715.212+181.727+714.309+184.155+712.655+185.889C713.407+187.276+713.858+189.009+713.858+190.916C713.858+195.424+711.151+199.065+707.693+199.759C707.843+200.279+707.843+200.799+707.843+201.319C707.843+206.347+704.385+210.334+700.324+210.334C699.422+210.334+698.52+210.161+697.618+209.641C696.565+213.108+693.858+215.536+690.7+215.536ZM690.7+145.145C688.144+145.145+686.189+147.746+686.189+150.693L686.189+206.346C686.189+209.467+688.294+211.894+690.7+211.894C693.106+211.894+695.061+209.64+695.212+206.693C695.212+206+695.663+205.48+696.114+205.133C696.565+204.786+697.167+204.959+697.618+205.306C699.573+207.213+701.979+206.867+703.483+204.959C704.385+203.919+704.836+202.532+704.836+200.972C704.836+200.105+704.686+199.411+704.234+198.371C703.934+197.851+704.084+197.158+704.385+196.637C704.686+196.117+705.287+195.77+705.738+195.944C705.889+195.944+706.039+195.944+706.34+196.117L706.34+196.117C708.896+196.117+710.851+193.69+710.851+190.569C710.851+189.009+710.4+187.622+709.347+186.582C709.197+186.235+709.046+185.715+709.046+185.195C709.046+184.675+709.347+184.154+709.798+183.981C711.302+182.941+712.355+181.034+712.355+179.127C712.355+176.353+710.55+173.926+708.295+173.579C707.693+173.579+707.092+172.885+706.941+172.192C706.791+171.498+707.092+170.631+707.693+170.285C709.197+169.244+710.099+167.511+710.099+165.43C710.099+162.31+708.144+159.882+705.738+159.882C705.588+159.882+705.437+159.882+705.437+159.882C704.986+159.882+704.535+159.709+704.234+159.189C703.934+158.842+703.783+158.149+703.934+157.629L704.084+157.108C704.234+156.762+704.234+156.415+704.234+156.242C704.234+153.121+702.129+150.694+699.723+150.694C699.122+150.694+698.37+150.867+697.618+151.387C697.167+151.734+696.565+151.734+696.114+151.387C695.663+151.04+695.362+150.52+695.362+150C694.911+147.399+692.956+145.145+690.7+145.145Z" opacity="1" fill="#193651"/>
<path d="M697.101+168.565L697.101+168.565C696.199+168.565+695.597+167.963+695.597+167.061C695.597+166.159+696.199+165.557+697.101+165.557L697.101+165.557L697.101+165.557C698.755+165.557+700.41+164.805+701.763+163.452C703.116+162.098+703.868+160.294+703.868+158.64C703.868+157.737+704.47+157.136+705.372+157.136C706.274+157.136+706.876+157.737+706.876+158.64C706.876+161.046+705.823+163.602+703.868+165.557C702.064+167.512+699.658+168.565+697.101+168.565Z" opacity="1" fill="#193651"/>
<path d="M696.715+209.52C695.813+209.52+695.211+208.919+695.211+208.016C695.211+205.761+692.956+203.656+690.7+203.656C689.798+203.656+689.196+203.054+689.196+202.152C689.196+201.249+689.798+200.648+690.7+200.648C694.61+200.648+698.219+204.106+698.219+208.016C698.219+208.919+697.467+209.52+696.715+209.52Z" fill="#193651" opacity="1"/>
<path opacity="1" fill="#193651" d="M700.325+194.658L700.325+194.658C699.422+194.658+698.821+194.057+698.821+193.154C698.821+188.041+704.686+183.981+709.798+183.981L709.798+183.981C710.701+183.981+711.302+184.583+711.302+185.485C711.302+186.387+710.701+186.989+709.798+186.989L709.798+186.989C706.189+186.989+701.828+189.846+701.828+193.154C701.829+193.906+701.227+194.658+700.325+194.658Z"/>
<path d="M654.309+177.744C654.309+181.512+656.715+184.424+659.722+184.766C657.767+185.965+656.564+188.363+656.564+191.103C656.564+195.042+659.271+198.296+662.579+198.296C662.73+198.296+662.73+198.296+662.88+198.296C662.73+198.809+662.579+199.323+662.579+200.008C662.579+203.947+665.286+207.201+668.594+207.201C669.647+207.201+670.549+206.859+671.452+206.174C671.752+209.941+674.309+212.853+677.467+212.853C680.775+212.853+683.482+209.599+683.482+205.66C683.482+201.721+683.482+150.685+683.482+150.685C683.482+146.746+680.775+143.492+677.467+143.492C674.309+143.492+671.602+146.575+671.452+150.343C670.399+149.315+669.196+148.63+667.843+148.63C664.534+148.63+661.828+151.884+661.828+155.823C661.828+157.022+662.128+158.049+662.579+159.077C662.279+159.077+662.128+158.906+661.828+158.906C658.519+158.906+655.813+162.159+655.813+166.099C655.813+168.154+656.564+170.037+657.767+171.408C655.662+172.606+654.309+175.004+654.309+177.744Z" fill="#f16051" opacity="1"/>
<path opacity="1" d="M678.821+215.536C675.663+215.536+672.806+213.108+671.753+209.468C671.151+209.641+670.55+209.814+669.948+209.814C665.738+209.814+662.429+205.827+662.429+200.799C662.429+200.799+662.429+200.799+662.429+200.626C658.971+199.759+656.414+196.118+656.414+191.783C656.414+189.703+657.016+187.622+658.219+186.062C655.813+184.502+654.309+181.554+654.309+178.26C654.309+175.66+655.211+173.232+656.866+171.498C656.114+170.111+655.663+168.378+655.663+166.471C655.663+161.963+658.369+158.322+661.828+157.628C661.678+157.108+661.678+156.588+661.678+156.068C661.678+151.04+665.136+147.052+669.196+147.052C670.099+147.052+671.001+147.226+671.903+147.746C672.956+144.279+675.663+141.851+678.971+141.851C683.181+141.851+686.49+145.839+686.49+150.867L686.49+206.52C686.339+211.548+683.031+215.536+678.821+215.536ZM672.806+205.306C673.106+205.306+673.257+205.306+673.557+205.48C674.009+205.827+674.309+206.347+674.309+206.867C674.46+209.814+676.415+211.895+678.821+211.895L678.821+211.895C681.377+211.895+683.332+209.294+683.332+206.347L683.332+150.867C683.332+147.746+681.227+145.319+678.821+145.319C676.415+145.319+674.46+147.573+674.309+150.52C674.309+151.213+673.858+151.734+673.407+152.08C672.956+152.427+672.354+152.254+671.903+151.907C671.001+151.04+670.099+150.693+669.196+150.693C666.64+150.693+664.685+153.294+664.685+156.241C664.685+157.108+664.835+157.802+665.287+158.842C665.587+159.362+665.437+160.055+665.136+160.576C664.835+161.096+664.234+161.443+663.783+161.269C663.632+161.269+663.482+161.269+663.181+161.096C661.978+161.096+660.926+161.616+660.023+162.656C659.121+163.697+658.67+165.084+658.67+166.644C658.67+168.204+659.121+169.591+660.174+170.631C660.475+170.978+660.625+171.498+660.625+172.018C660.625+172.538+660.324+173.059+659.873+173.232C658.369+174.272+657.316+176.179+657.316+178.086C657.316+180.86+659.121+183.288+661.376+183.634C661.978+183.634+662.579+184.328+662.73+185.021C662.88+185.715+662.579+186.582+661.978+186.928C660.324+187.969+659.422+189.702+659.422+191.783C659.422+194.903+661.376+197.331+663.782+197.331C663.933+197.331+664.083+197.331+664.083+197.331C664.534+197.331+664.986+197.504+665.286+198.024C665.587+198.371+665.737+199.064+665.587+199.585L665.437+200.105C665.437+200.278+665.437+200.625+665.437+200.798C665.437+203.919+667.542+206.346+669.948+206.346C670.55+206.346+671.301+206.173+672.053+205.653C672.354+205.48+672.655+205.306+672.806+205.306Z" fill="#193651"/>
<path d="M678.654+158.466L678.654+158.466C674.744+158.466+671.286+155.007+671.286+151.097C671.286+150.195+671.887+149.594+672.789+149.594C673.692+149.594+674.293+150.195+674.293+151.097C674.293+153.353+676.549+155.458+678.805+155.458C679.707+155.458+680.308+156.06+680.308+156.962C680.158+157.714+679.406+158.466+678.654+158.466Z" fill="#193651" opacity="1"/>
<path opacity="1" d="M659.873+173.232C658.97+173.232+658.369+172.63+658.369+171.728C658.369+170.826+658.97+170.224+659.873+170.224L659.873+170.224C661.677+170.224+663.783+169.472+665.286+168.269C666.189+167.517+667.843+166.014+667.843+164.059C667.843+163.156+668.444+162.555+669.347+162.555L669.347+162.555C670.249+162.555+670.85+163.156+670.85+164.059C670.85+166.465+669.497+168.871+667.091+170.675C664.986+172.33+662.279+173.232+659.873+173.232Z" fill="#193651"/>
<path d="M683.495+186.897C683.562+185.997+684.207+185.443+685.107+185.51C690.055+185.882+693.8+190.235+693.428+195.184C693.36+196.083+692.715+196.638+691.816+196.57C690.916+196.503+690.361+195.858+690.429+194.958C690.677+191.659+688.18+188.757+684.881+188.509C683.982+188.442+683.427+187.797+683.495+186.897Z" opacity="1" fill="#193651"/>
<path d="M677.369+195.918C676.467+195.918+675.865+195.316+675.865+194.414C675.865+189.452+679.926+185.391+684.888+185.391C685.79+185.391+686.392+185.993+686.392+186.895C686.392+187.798+685.79+188.399+684.888+188.399C681.58+188.399+678.873+191.106+678.873+194.414C678.873+195.316+678.271+195.918+677.369+195.918Z" opacity="1" fill="#193651"/>
<path fill="#193651" d="M682.93+177.645C682.028+177.645+681.426+177.043+681.426+176.141C681.426+173.885+679.171+171.78+676.915+171.78C676.013+171.78+675.411+171.178+675.411+170.276C675.411+169.374+676.013+168.772+676.915+168.772C680.825+168.772+684.434+172.231+684.434+176.141C684.434+177.043+683.682+177.645+682.93+177.645Z" opacity="1"/>
<path opacity="1" d="M686.607+177.645C687.509+177.645+688.111+177.043+688.111+176.141C688.111+173.885+690.366+171.78+692.622+171.78C693.525+171.78+694.126+171.178+694.126+170.276C694.126+169.374+693.525+168.772+692.622+168.772C688.712+168.772+685.103+172.231+685.103+176.141C685.103+177.043+685.855+177.645+686.607+177.645Z" fill="#193651"/>
<path opacity="1" fill="#193651" d="M671.818+187.734L671.818+187.734C671.715+186.837+671.048+186.309+670.152+186.412C665.073+186.998+661.712+193.29+662.298+198.369L662.298+198.369C662.402+199.265+663.068+199.794+663.965+199.69C664.861+199.587+665.39+198.92+665.286+198.024L665.286+198.024C664.872+194.439+667.21+189.779+670.497+189.4C671.244+189.314+671.922+188.63+671.818+187.734Z"/>
</g>
</g>
<g id="g2482" vectornator:layerName="g2482">
<path fill="none" stroke-dasharray="6.079999923706055,6.079999923706055" stroke-width="6.08" stroke="#808080" stroke-linecap="butt" opacity="1" stroke-linejoin="miter" d="M1049.7+177.179C1049.7+126.672+1090.63+85.7388+1141.14+85.7388C1191.64+85.7388+1232.58+126.672+1232.58+177.179C1232.58+227.685+1191.64+268.619+1141.14+268.619C1090.63+268.619+1049.7+227.685+1049.7+177.179Z"/>
<path opacity="1" fill="#ffffff" d="M1099.14+57.2988C1099.14+53.2188+1102.46+49.8988+1106.54+49.8988L1175.42+49.8988C1179.5+49.8988+1182.82+53.2188+1182.82+57.2988L1182.82+111.779C1182.82+115.859+1179.5+119.179+1175.42+119.179L1106.54+119.179C1102.46+119.179+1099.14+115.859+1099.14+111.779L1099.14+57.2988Z"/>
<path stroke="#808080" stroke-width="6.08" stroke-linejoin="miter" opacity="1" d="M1099.14+57.2988C1099.14+53.2188+1102.46+49.8988+1106.54+49.8988L1175.42+49.8988C1179.5+49.8988+1182.82+53.2188+1182.82+57.2988L1182.82+111.779C1182.82+115.859+1179.5+119.179+1175.42+119.179L1106.54+119.179C1102.46+119.179+1099.14+115.859+1099.14+111.779L1099.14+57.2988Z" stroke-linecap="butt" fill="none"/>
<path fill="none" stroke="#f7cd44" opacity="1" stroke-linejoin="miter" stroke-width="6.08" d="M1128.74+72.0588C1128.74+65.6588+1133.94+60.4588+1140.34+60.4588C1146.74+60.4588+1151.94+65.6588+1151.94+72.0588C1151.94+78.4588+1146.74+83.6588+1140.34+83.6588C1133.94+83.6588+1128.74+78.4588+1128.74+72.0588Z" stroke-linecap="butt"/>
<path fill="#ffffff" d="M1113.22+102.312C1113.22+96.6054+1117.84+91.9788+1123.55+91.9788L1156.16+91.9788C1161.87+91.9788+1166.5+96.6054+1166.5+102.312L1166.5+108.365C1166.5+114.072+1161.87+118.699+1156.16+118.699L1123.55+118.699C1117.84+118.699+1113.22+114.072+1113.22+108.365L1113.22+102.312Z" opacity="1"/>
<path d="M1113.22+102.312C1113.22+96.6054+1117.84+91.9788+1123.55+91.9788L1156.16+91.9788C1161.87+91.9788+1166.5+96.6054+1166.5+102.312L1166.5+108.365C1166.5+114.072+1161.87+118.699+1156.16+118.699L1123.55+118.699C1117.84+118.699+1113.22+114.072+1113.22+108.365L1113.22+102.312Z" stroke="#f7cd44" stroke-width="6.08" opacity="1" stroke-linecap="butt" stroke-linejoin="miter" fill="none"/>
<path stroke-linecap="butt" stroke-linejoin="miter" stroke-width="4" d="M1125.14+102.459L1125.14+114.725" stroke="#f7cd44" fill="none" opacity="1"/>
<path stroke="#f7cd44" stroke-linejoin="miter" stroke-width="4" opacity="1" d="M1155.86+102.459L1155.86+114.725" stroke-linecap="butt" fill="none"/>
<path opacity="1" d="M1096.26+120.299C1096.26+116.325+1091.46+111.499+1095.43+111.499L1186.34+111.899C1189.91+113.699+1185.71+116.325+1185.71+120.299L1185.71+120.299C1184.31+124.672+1182.5+127.499+1178.54+127.499L1103.43+127.499C1099.47+127.499+1096.26+124.272+1096.26+120.299Z" fill="#ffffff"/>
<path stroke-width="6.08" stroke-linejoin="miter" d="M1096.26+120.299C1096.26+116.325+1091.46+111.499+1095.43+111.499L1186.34+111.899C1189.91+113.699+1185.71+116.325+1185.71+120.299L1185.71+120.299C1184.31+124.672+1182.5+127.499+1178.54+127.499L1103.43+127.499C1099.47+127.499+1096.26+124.272+1096.26+120.299Z" stroke="#808080" stroke-linecap="butt" opacity="1" fill="none"/>
<g opacity="1">
<path opacity="1" fill="#ffffff" d="M1185.86+179.712C1185.86+175.619+1189.18+172.299+1193.27+172.299L1262.12+172.299C1266.22+172.299+1269.54+175.619+1269.54+179.712L1269.54+234.325C1269.54+238.419+1266.22+241.739+1262.12+241.739L1193.27+241.739C1189.18+241.739+1185.86+238.419+1185.86+234.325L1185.86+179.712Z"/>
<path stroke-width="6.08" opacity="1" d="M1185.86+179.712C1185.86+175.619+1189.18+172.299+1193.27+172.299L1262.12+172.299C1266.22+172.299+1269.54+175.619+1269.54+179.712L1269.54+234.325C1269.54+238.419+1266.22+241.739+1262.12+241.739L1193.27+241.739C1189.18+241.739+1185.86+238.419+1185.86+234.325L1185.86+179.712Z" stroke-linejoin="miter" fill="none" stroke="#808080" stroke-linecap="butt"/>
<path stroke="#f7cd44" opacity="1" stroke-width="6.08" d="M1215.46+194.539C1215.46+188.085+1220.68+182.859+1227.14+182.859C1233.59+182.859+1238.82+188.085+1238.82+194.539C1238.82+200.992+1233.59+206.219+1227.14+206.219C1220.68+206.219+1215.46+200.992+1215.46+194.539Z" stroke-linecap="butt" fill="none" stroke-linejoin="miter"/>
<path d="M1199.94+224.805C1199.94+219.139+1204.54+214.539+1210.2+214.539L1242.95+214.539C1248.62+214.539+1253.22+219.139+1253.22+224.805L1253.22+230.832C1253.22+236.499+1248.62+241.099+1242.95+241.099L1210.2+241.099C1204.54+241.099+1199.94+236.499+1199.94+230.832L1199.94+224.805Z" opacity="1" fill="#ffffff"/>
<path stroke="#f7cd44" d="M1199.94+224.805C1199.94+219.139+1204.54+214.539+1210.2+214.539L1242.95+214.539C1248.62+214.539+1253.22+219.139+1253.22+224.805L1253.22+230.832C1253.22+236.499+1248.62+241.099+1242.95+241.099L1210.2+241.099C1204.54+241.099+1199.94+236.499+1199.94+230.832L1199.94+224.805Z" opacity="1" stroke-linejoin="miter" fill="none" stroke-width="6.08" stroke-linecap="butt"/>
<path opacity="1" stroke-linejoin="miter" stroke-linecap="butt" stroke-width="4" stroke="#f7cd44" fill="none" d="M1211.86+225.019L1211.86+237.285"/>
<path d="M1242.74+225.019L1242.74+237.285" stroke-linecap="butt" stroke-linejoin="miter" opacity="1" fill="none" stroke="#f7cd44" stroke-width="4"/>
<path fill="#ffffff" d="M1182.98+242.779C1182.98+238.832+1178.18+234.059+1182.15+234.059L1273.06+234.459C1276.63+236.245+1272.43+238.832+1272.43+242.779L1272.43+242.779C1271.03+247.112+1269.22+249.899+1265.26+249.899L1190.15+249.899C1186.19+249.899+1182.98+246.712+1182.98+242.779Z" opacity="1"/>
<path stroke="#808080" stroke-linecap="butt" stroke-width="6.08" stroke-linejoin="miter" opacity="1" d="M1182.98+242.779C1182.98+238.832+1178.18+234.059+1182.15+234.059L1273.06+234.459C1276.63+236.245+1272.43+238.832+1272.43+242.779L1272.43+242.779C1271.03+247.112+1269.22+249.899+1265.26+249.899L1190.15+249.899C1186.19+249.899+1182.98+246.712+1182.98+242.779Z" fill="none"/>
</g>
<g opacity="1">
<path d="M1013.06+180.659C1013.06+176.579+1016.38+173.259+1020.46+173.259L1089.18+173.259C1093.26+173.259+1096.58+176.579+1096.58+180.659L1096.58+235.139C1096.58+239.219+1093.26+242.539+1089.18+242.539L1020.46+242.539C1016.38+242.539+1013.06+239.219+1013.06+235.139L1013.06+180.659Z" opacity="1" fill="#ffffff"/>
<path fill="none" stroke-width="6.08" opacity="1" stroke-linecap="butt" d="M1013.06+180.659C1013.06+176.579+1016.38+173.259+1020.46+173.259L1089.18+173.259C1093.26+173.259+1096.58+176.579+1096.58+180.659L1096.58+235.139C1096.58+239.219+1093.26+242.539+1089.18+242.539L1020.46+242.539C1016.38+242.539+1013.06+239.219+1013.06+235.139L1013.06+180.659Z" stroke-linejoin="miter" stroke="#808080"/>
<path stroke-linecap="butt" stroke-width="6.08" stroke-linejoin="miter" fill="none" stroke="#f7cd44" opacity="1" d="M1042.5+195.419C1042.5+189.019+1047.72+183.819+1054.18+183.819C1060.63+183.819+1065.86+189.019+1065.86+195.419C1065.86+201.819+1060.63+207.019+1054.18+207.019C1047.72+207.019+1042.5+201.819+1042.5+195.419Z"/>
<path d="M1026.98+225.672C1026.98+219.965+1031.6+215.339+1037.31+215.339L1069.92+215.339C1075.63+215.339+1080.26+219.965+1080.26+225.672L1080.26+231.725C1080.26+237.432+1075.63+242.059+1069.92+242.059L1037.31+242.059C1031.6+242.059+1026.98+237.432+1026.98+231.725L1026.98+225.672Z" opacity="1" fill="#ffffff"/>
<path stroke-linejoin="miter" fill="none" stroke-linecap="butt" stroke="#f7cd44" stroke-width="6.08" d="M1026.98+225.672C1026.98+219.965+1031.6+215.339+1037.31+215.339L1069.92+215.339C1075.63+215.339+1080.26+219.965+1080.26+225.672L1080.26+231.725C1080.26+237.432+1075.63+242.059+1069.92+242.059L1037.31+242.059C1031.6+242.059+1026.98+237.432+1026.98+231.725L1026.98+225.672Z" opacity="1"/>
<path stroke-linejoin="miter" opacity="1" stroke="#f7cd44" d="M1038.9+225.819L1038.9+238.085" stroke-width="4" stroke-linecap="butt" fill="none"/>
<path stroke="#f7cd44" stroke-linecap="butt" fill="none" d="M1069.78+225.819L1069.78+238.085" opacity="1" stroke-linejoin="miter" stroke-width="4"/>
<path opacity="1" d="M1010.02+243.659C1010.02+239.685+1005.22+234.859+1009.19+234.859L1100.1+235.259C1103.67+237.059+1099.47+239.685+1099.47+243.659L1099.47+243.659C1098.07+248.032+1096.26+250.859+1092.3+250.859L1017.19+250.859C1013.23+250.859+1010.02+247.632+1010.02+243.659Z" fill="#ffffff"/>
<path stroke-width="6.08" stroke-linejoin="miter" opacity="1" fill="none" d="M1010.02+243.659C1010.02+239.685+1005.22+234.859+1009.19+234.859L1100.1+235.259C1103.67+237.059+1099.47+239.685+1099.47+243.659L1099.47+243.659C1098.07+248.032+1096.26+250.859+1092.3+250.859L1017.19+250.859C1013.23+250.859+1010.02+247.632+1010.02+243.659Z" stroke-linecap="butt" stroke="#808080"/>
</g>
<g opacity="1">
<path fill="#193651" d="M1149.08+211.777L1130.13+211.777C1129.23+211.777+1128.63+211.175+1128.63+210.273L1128.63+195.837C1128.63+194.183+1127.88+192.829+1126.52+191.927C1119.76+187.265+1116.15+179.145+1116.9+171.025C1117.95+159.897+1127.27+151.024+1138.4+150.423C1151.48+149.821+1162.46+160.348+1162.46+173.28C1162.46+180.799+1158.85+187.716+1152.69+192.077C1151.48+192.98+1150.73+194.333+1150.73+195.987L1150.73+210.423C1150.58+211.025+1149.98+211.777+1149.08+211.777ZM1131.64+208.769L1147.73+208.769L1147.73+195.837C1147.73+193.28+1148.93+190.874+1151.03+189.521C1156.15+185.761+1159.45+179.746+1159.45+173.28C1159.45+162.002+1149.98+152.979+1138.7+153.581C1128.93+154.032+1120.96+161.701+1119.91+171.325C1119.15+178.543+1122.31+185.31+1128.33+189.521C1130.43+191.025+1131.64+193.431+1131.64+195.987C1131.64+195.987+1131.64+208.769+1131.64+208.769Z" opacity="1"/>
<path d="M1139.68+155.644L1138.84+155.644C1130.23+155.963+1122.64+162.653+1121.79+170.937C1121.12+177.149+1125.05+184.061+1130.45+187.725C1133.99+189.955+1132.34+193.341+1133.78+197.054L1134.96+200.087L1144.41+200.087L1145.82+197.054C1147.5+193.444+1146.32+189.602+1149.69+187.371C1154.59+184.186+1157.57+178.105+1157.57+172.689C1157.58+163.29+1149.47+155.644+1139.68+155.644Z" opacity="1" fill="#f7cd44"/>
<path d="M1105.83+172.594L1115.06+172.594L1115.06+172.594L1115.06+175.752L1115.06+175.752L1105.83+175.752L1105.83+175.752L1105.83+172.594L1105.83+172.594Z" opacity="1" fill="#f7cd44"/>
<path fill="#ffffff" d="M1134.64+210.273L1134.64+211.626C1134.64+214.333+1136.9+216.589+1139.61+216.589C1142.31+216.589+1144.57+214.333+1144.57+211.626L1144.57+210.273L1134.64+210.273Z" opacity="1"/>
<path fill="#193651" opacity="1" d="M1144.57+208.769L1134.64+208.769C1133.74+208.769+1133.14+209.37+1133.14+210.273L1133.14+211.626C1133.14+215.235+1136+218.092+1139.61+218.092C1143.21+218.092+1146.07+215.235+1146.07+211.626L1146.07+210.273C1146.07+209.371+1145.32+208.769+1144.57+208.769ZM1139.61+215.085C1137.8+215.085+1136.3+213.581+1136.15+211.776L1143.06+211.776C1142.91+213.581+1141.41+215.085+1139.61+215.085Z"/>
<path fill="#d0956d" opacity="1" d="M1145.92+180.348L1142.76+180.348C1141.86+180.348+1141.26+179.746+1141.26+178.844L1141.26+175.686C1141.26+172.829+1143.51+170.573+1146.37+170.573C1147.58+170.573+1148.78+171.024+1149.68+171.927L1149.83+172.077C1151.18+173.431+1151.48+175.385+1150.73+177.34C1149.83+179.145+1148.03+180.348+1145.92+180.348ZM1144.27+177.34L1145.92+177.34C1146.97+177.34+1147.58+176.588+1147.88+175.987C1148.03+175.686+1148.33+174.784+1147.58+174.032C1147.12+173.581+1146.82+173.431+1146.37+173.431C1145.32+173.431+1144.27+174.182+1144.27+175.536L1144.27+177.34L1144.27+177.34Z"/>
<path opacity="1" fill="#d0956d" d="M1136.3+180.348L1133.14+180.348C1131.18+180.348+1129.23+179.145+1128.48+177.19C1127.73+175.385+1128.03+173.431+1129.38+172.077L1129.53+171.927C1130.43+171.024+1131.64+170.573+1132.84+170.573C1135.7+170.573+1137.95+172.829+1137.95+175.686L1137.95+178.844C1137.8+179.596+1137.2+180.348+1136.3+180.348ZM1132.84+173.581C1132.39+173.581+1132.09+173.731+1131.64+174.032C1130.88+174.784+1131.18+175.686+1131.18+175.987C1131.49+176.588+1132.09+177.34+1133.14+177.34L1134.79+177.34L1134.79+175.686C1134.79+174.333+1133.74+173.581+1132.84+173.581Z"/>
<path d="M1142.76+200.649C1141.86+200.649+1141.26+200.047+1141.26+199.145L1141.26+180.348L1137.8+180.348L1137.8+199.145C1137.8+200.047+1137.2+200.649+1136.3+200.649C1135.39+200.649+1134.79+200.047+1134.79+199.145L1134.79+178.844C1134.79+177.942+1135.39+177.34+1136.3+177.34L1142.76+177.34C1143.67+177.34+1144.27+177.942+1144.27+178.844L1144.27+199.145C1144.27+199.897+1143.67+200.649+1142.76+200.649Z" opacity="1" fill="#d0956d"/>
<path opacity="1" fill="#193651" d="M1148.06+200.649L1131+200.649C1130.1+200.649+1129.5+200.047+1129.5+199.145C1129.5+198.243+1130.1+197.641+1131+197.641L1148.06+197.641C1148.96+197.641+1149.56+198.243+1149.56+199.145C1149.56+199.897+1148.96+200.649+1148.06+200.649Z"/>
<path d="M1148.06+206.213L1130.61+206.213C1129.71+206.213+1129.11+205.611+1129.11+204.709C1129.11+203.807+1129.71+203.205+1130.61+203.205L1148.06+203.205C1148.96+203.205+1149.56+203.807+1149.56+204.709C1149.56+205.611+1148.96+206.213+1148.06+206.213Z" opacity="1" fill="#193651"/>
<path opacity="1" d="M1108.63+188.543L1116.51+183.733L1116.51+183.733L1118.15+186.428L1118.15+186.428L1110.27+191.239L1110.27+191.239L1108.63+188.543L1108.63+188.543Z" fill="#f7cd44"/>
<path opacity="1" fill="#f7cd44" d="M1109.46+156.544L1117.53+161.042L1117.53+161.042L1115.99+163.801L1115.99+163.801L1107.92+159.303L1107.92+159.303L1109.46+156.544L1109.46+156.544Z"/>
<path opacity="1" d="M1121.49+143.503L1126.85+151.029L1126.85+151.029L1124.27+152.86L1124.27+152.86L1118.92+145.333L1118.92+145.333L1121.49+143.503L1121.49+143.503Z" fill="#f7cd44"/>
<path d="M1140.28+139.566L1140.28+148.802L1140.28+148.802L1137.13+148.802L1137.13+148.802L1137.13+139.566L1137.13+139.566L1140.28+139.566L1140.28+139.566Z" fill="#f7cd44" opacity="1"/>
<path d="M1172.98+172.594L1163.75+172.594L1163.75+172.594L1163.75+175.752L1163.75+175.752L1172.98+175.752L1172.98+175.752L1172.98+172.594L1172.98+172.594Z" opacity="1" fill="#f7cd44"/>
<path d="M1170.18+188.543L1162.3+183.733L1162.3+183.733L1160.65+186.429L1160.65+186.429L1168.54+191.239L1168.54+191.239L1170.18+188.543L1170.18+188.543Z" opacity="1" fill="#f7cd44"/>
<path d="M1169.35+156.544L1161.28+161.042L1161.28+161.042L1162.82+163.8L1162.82+163.8L1170.89+159.302L1170.89+159.302L1169.35+156.544L1169.35+156.544Z" fill="#f7cd44" opacity="1"/>
<path d="M1157.32+143.503L1151.96+151.03L1151.96+151.03L1154.54+152.86L1154.54+152.86L1159.89+145.333L1159.89+145.333L1157.32+143.503L1157.32+143.503Z" opacity="1" fill="#f7cd44"/>
</g>
</g>
</svg>
